<?xml version="1.0" encoding="utf-8"?>
<!-- Generator: Adobe Illustrator 22.1.0, SVG Export Plug-In . SVG Version: 6.00 Build 0)  -->
<svg version="1.1" id="Layer_1" xmlns="http://www.w3.org/2000/svg" xmlns:xlink="http://www.w3.org/1999/xlink" x="0px" y="0px"
	 viewBox="0 0 160 28" style="enable-background:new 0 0 160 28;" xml:space="preserve">
<style type="text/css">
	.st0{fill:#9E9E9E;}
	.st1{clip-path:url(#SVGID_4_);}
	.st2{fill:#FFD500;}
	.st3{fill:#BABABA;}
</style>
<g>
	<g>
		<defs>
			<path id="SVGID_1_" d="M156.1-249c0.1,0,0.2,0,0.3-0.1l5.7-5.7c0.1-0.1,0.1-0.2,0.1-0.3s0-0.2-0.1-0.3l-5.7-5.7
				c-0.1-0.1-0.2-0.1-0.3-0.1s-0.2,0-0.3,0.1l-0.6,0.6c-0.1,0.1-0.1,0.2-0.1,0.3s0,0.2,0.1,0.3l4.8,4.8l-4.8,4.8
				c-0.1,0.1-0.1,0.2-0.1,0.3s0,0.2,0.1,0.3l0.6,0.6C155.9-249,156-249,156.1-249z"/>
		</defs>
		<clipPath id="SVGID_2_">
			<use xlink:href="#SVGID_1_"  style="overflow:visible;"/>
		</clipPath>
	</g>
</g>
<g>
	<g>
		<path id="SVGID_241_" class="st0" d="M929.5-486.1l-6.5-6.5c-0.4-0.4-1-0.4-1.4,0s-0.4,1,0,1.4l5.8,5.8l-5.8,5.8
			c-0.4,0.4-0.4,1,0,1.4s1,0.4,1.4,0l6.5-6.5c0.2-0.2,0.3-0.5,0.3-0.7C929.8-485.7,929.7-485.9,929.5-486.1z"/>
	</g>
	<g>
		<defs>
			<path id="SVGID_3_" d="M929.5-486.1l-6.5-6.5c-0.4-0.4-1-0.4-1.4,0s-0.4,1,0,1.4l5.8,5.8l-5.8,5.8c-0.4,0.4-0.4,1,0,1.4
				s1,0.4,1.4,0l6.5-6.5c0.2-0.2,0.3-0.5,0.3-0.7C929.8-485.7,929.7-485.9,929.5-486.1z"/>
		</defs>
		<clipPath id="SVGID_4_">
			<use xlink:href="#SVGID_3_"  style="overflow:visible;"/>
		</clipPath>
		<g class="st1">
			<g>
				<rect id="SVGID_243_" x="-613.2" y="-1325.9" class="st0" width="1920" height="2473"/>
			</g>
		</g>
	</g>
</g>
<g>
	<polygon class="st2" points="18.3,10.6 14.6,0 10.9,10.6 -0.1,10.6 8.7,17.5 5.3,28 14.6,21.8 23.9,28 20.5,17.5 29.3,10.6 	"/>
	<polygon class="st3" points="50.9,10.6 47.3,0 43.7,10.6 32.7,10.6 41.5,17.5 38,28 47.3,21.8 56.6,28 53.2,17.5 62,10.6 	"/>
	<polygon class="st3" points="83.7,10.6 80,0 76.4,10.6 65.4,10.6 74.2,17.5 70.7,28 80,21.8 89.3,28 85.9,17.5 94.7,10.6 	"/>
	<polygon class="st3" points="116.4,10.6 112.7,0 109.1,10.6 98.1,10.6 106.9,17.5 103.4,28 112.7,21.8 122,28 118.6,17.5 
		127.4,10.6 	"/>
	<polygon class="st3" points="160.1,10.6 149.1,10.6 145.4,0 141.8,10.6 130.8,10.6 139.6,17.5 136.1,28 145.4,21.8 154.7,28 
		151.3,17.5 	"/>
</g>
</svg>
